<svg width="720" height="720" viewBox="0 0 720 720" fill="none" xmlns="http://www.w3.org/2000/svg">
<rect width="720" height="720" rx="96" fill="#18130D"/>
<circle cx="510" cy="174" r="112" fill="#FFB648"/>
<circle cx="236" cy="388" r="184" fill="#F6E6CF"/>
<path d="M428 188C503.663 188 565 249.337 565 325V533H489V337C489 281.772 444.228 237 389 237H322V533H246V188H428Z" fill="#18130D"/>
<path d="M132 533V188H208V456H349V533H132Z" fill="#C67322"/>
<path d="M390 533C464.006 533 524 473.006 524 399C524 324.994 464.006 265 390 265C315.994 265 256 324.994 256 399C256 473.006 315.994 533 390 533Z" fill="#FFB648"/>
</svg>
